<?xml version="1.0" encoding="utf-8"?><!-- Generator: Adobe Illustrator 16.0.3, SVG Export Plug-In . SVG Version: 6.00 Build 0)  --><!DOCTYPE svg PUBLIC
    "-//W3C//DTD SVG 1.1//EN" "http://www.w3.org/Graphics/SVG/1.1/DTD/svg11.dtd">
<svg enable-background="new 0 0 757 456.016" height="456.016px" id="Capa_1"  version="1.1" viewBox="0 0 757 456.016"
	 width="757px" x="0px" xmlns="http://www.w3.org/2000/svg" y="0px" xml:space="preserve">
<g>
	<g>
		<path d="M757,345.333c0,11-9,20-20,20H20c-11,0-20-9-20-20V20C0,9,9,0,20,0h717c11,0,20,9,20,20V345.333z" fill="#FEFEFE"/>
	</g>
	<g>
		<path d="M639.651,451.865c2.383,2.283,5.855,4.15,7.716,4.15c1.861,0,5.331-1.87,7.711-4.156l85.469-82.078
			c2.381-2.286,4.374-4.222,4.43-4.303c0.056-0.08-2.599-0.146-5.898-0.146H555.313c-3.3,0-4.05,1.868-1.667,4.15L639.651,451.865z" fill="#FEFEFE"
			/>
	</g>
	<polygon fill="#FEFEFE" points="553.739,369.573 549.313,365.333 556,365.333 	"/>
	<polyline fill="#FEFEFE" points="751.656,358.906 744.875,365.625 736.438,365.333 	"/>
</g>
</svg>
