<?xml version="1.0" encoding="utf-8"?><!-- Generator: Adobe Illustrator 16.0.3, SVG Export Plug-In . SVG Version: 6.00 Build 0)  --><!DOCTYPE svg PUBLIC
    "-//W3C//DTD SVG 1.1//EN" "http://www.w3.org/Graphics/SVG/1.1/DTD/svg11.dtd">
<svg enable-background="new 0 0 1214.186 1178.187" height="1178.187px" id="Capa_1"  version="1.1" viewBox="0 0 1214.186 1178.187"
	 width="1214.186px" x="0px" xmlns="http://www.w3.org/2000/svg" y="0px"
	 xml:space="preserve">
<g>
	<path clip-rule="evenodd" d="M607.093,1178.093c-200.833,0-401.667-0.012-602.5,0.094
		c-3.749,0.002-4.594-0.845-4.593-4.594c0.099-389.667,0.099-779.333,0-1169C-0.001,0.844,0.844-0.001,4.593,0
		c401.667,0.099,803.333,0.099,1205,0c3.749-0.001,4.594,0.844,4.593,4.593c-0.099,389.667-0.099,779.333,0,1169
		c0.001,3.749-0.844,4.596-4.593,4.594C1008.76,1178.081,807.926,1178.093,607.093,1178.093z M606.542,1176.112
		c199.315,0,398.631,0,597.947,0c7.617,0,7.619-0.003,7.619-7.441c0.001-386.466,0.001-772.931,0-1159.396
		c0-7.197-0.004-7.201-7.359-7.201C806.284,2.072,407.82,2.072,9.356,2.073c-1.333,0-2.669,0.063-3.999,0.006
		C3.036,1.979,1.986,3.036,2.081,5.356c0.062,1.497-0.004,2.999-0.004,4.499c0,386.132,0,772.265,0,1158.396
		c0,1.5,0.12,3.01-0.014,4.497c-0.243,2.694,1.035,3.557,3.535,3.378c1.658-0.119,3.332-0.015,4.998-0.015
		C209.245,1176.112,407.894,1176.112,606.542,1176.112z" fill="#FE9700" fill-rule="evenodd"/>
</g>
</svg>
