<?xml version="1.0" encoding="utf-8"?><!-- Generator: Adobe Illustrator 16.0.3, SVG Export Plug-In . SVG Version: 6.00 Build 0)  --><!DOCTYPE svg PUBLIC
    "-//W3C//DTD SVG 1.1//EN" "http://www.w3.org/Graphics/SVG/1.1/DTD/svg11.dtd">
<svg version="1.1" id="Capa_1" xmlns="http://www.w3.org/2000/svg"  x="0px" y="0px"
	 width="359.333px" height="362.667px" viewBox="0 0 359.333 362.667" enable-background="new 0 0 359.333 362.667"
	 xml:space="preserve">
<path fill-rule="evenodd" clip-rule="evenodd" fill="#FCFBFB" d="M86.853,195.193c-3.628,0-7.218,0.042-10.806-0.009
	c-9.277-0.13-16.806-7.439-17.373-16.621c-0.148-2.403,0.582-3.362,3.005-3.277c3.162,0.109,6.354-0.223,9.489,0.085
	c3.859,0.378,5.184-1.04,5.421-4.91c1.305-21.333,6.343-41.826,15.407-61.164c17.349-37.014,43.459-64.792,83.527-77.307
	c4.904-1.532,10.037-2.385,15.112-3.297c2.283-0.41,3.061-1.094,2.648-3.563c-0.83-4.969,0.34-9.612,3.414-13.667
	c5.219-6.887,13.881-6.923,19.055-0.031c3.027,4.032,4.309,8.628,3.461,13.644c-0.32,1.89-0.424,3.058,1.992,3.513
	c60.789,11.448,92.256,52.559,109.119,108.253c3.385,11.177,5.133,22.734,5.813,34.401c0.188,3.218,1.34,4.363,4.541,4.121
	c3.313-0.251,6.668,0.086,9.99-0.095c2.824-0.153,3.338,1.104,3.102,3.602c-0.887,9.41-8.15,16.257-17.627,16.311
	c-10.496,0.06-20.994,0.147-31.486-0.06c-3.346-0.066-5.453,1.029-7.533,3.625c-22.197,27.682-44.566,55.229-66.742,82.929
	c-2.238,2.797-4.531,3.705-8,3.691c-31.99-0.123-63.979-0.012-95.969-0.148c-4.048-0.018-7.381,0.789-10.507,3.439
	c-3.55,3.012-7.493,5.553-11.168,8.422c-1.858,1.451-3.193,1.863-4.932-0.326c-16.159-20.354-32.375-40.66-48.668-60.908
	c-1.701-2.113-1.043-3.352,0.447-5.068c10.28-11.838,20.818-23.403,33.319-33C85.62,197.225,86.768,196.969,86.853,195.193z
	 M147.668,223.307c5.162,6.005,9.83,10.432,14.8,14.604c3.904,3.279,8.123,4.68,13.264,4.588c13.477-0.24,26.959-0.188,40.438-0.006
	c3.439,0.047,5.852-0.945,8.256-3.438c12.824-13.296,25.91-26.333,40.133-38.167c1.949-1.622,3.895-3.253,6.813-5.69
	c-14.637,0-27.908,0.116-41.176-0.079c-3.461-0.052-5.225,0.976-6.762,4.209c-7.697,16.184-19.771,25.252-38.659,24.112
	C172.896,222.724,160.939,223.307,147.668,223.307z M34.397,232.35c-9.021,11.131-17.988,22.303-27.051,33.398
	c-1.458,1.785-1.929,3.057-0.257,5.117c22.043,27.166,44.021,54.387,65.932,81.658c1.834,2.283,2.77,1.875,4.379-0.145
	c9.038-11.33,18.158-22.596,27.323-33.824c1.494-1.83,1.656-3.174,0.074-5.127c-21.921-27.051-43.768-54.162-65.626-81.262
	c-0.616-0.766-1.167-1.583-1.491-2.026C35.639,230.324,35.104,231.477,34.397,232.35z"/>
</svg>
