<?xml version="1.0" encoding="utf-8"?><!-- Generator: Adobe Illustrator 16.0.3, SVG Export Plug-In . SVG Version: 6.00 Build 0)  --><!DOCTYPE svg PUBLIC
    "-//W3C//DTD SVG 1.1//EN" "http://www.w3.org/Graphics/SVG/1.1/DTD/svg11.dtd">
<svg enable-background="new 219 270 183.5 251.5" height="251.5px" id="Capa_1"  version="1.1" viewBox="219 270 183.5 251.5"
	 width="183.5px" x="0px" xmlns="http://www.w3.org/2000/svg" y="0px"
	 xml:space="preserve">
<g>
	<path d="M225.796,480.726c0.059-0.992,0.169-1.984,0.169-2.977c0.007-58.011,0.006-116.021-0.003-174.03
		c0-0.992-0.111-1.984-0.17-2.978c0.063-5.734,0.116-11.47,0.194-17.204c0.074-5.343,1.896-7.167,7.24-7.168
		c37.324-0.008,74.648-0.007,111.972,0.007c5.146,0.001,7.16,2.043,7.21,7.158c0.052,5.238,0.104,10.477,0.155,15.713
		c-0.052,15.208-0.193,30.416-0.079,45.623c0.023,3.124-0.683,5.423-3.152,7.408c-2.22,1.785-4.116,3.972-6.954,6.768
		c0-18.906,0-37.095,0-55.283c0.061-2.199,0.132-4.397,0.174-6.597c0.021-1.058,0-2.135-1.566-1.275l-0.101,0.097
		c-1.214-0.991-2.644-0.466-3.955-0.469c-14.985-0.046-29.973-0.032-44.958-0.032c-17.733,0-35.466,0.008-53.2-0.006
		c-1.664-0.001-3.175-0.289-3.096,2.336c0.217,7.229,0.195,14.466,0.269,21.7c-0.067,0.989-0.194,1.979-0.194,2.97
		c-0.01,56.499-0.01,112.997,0,169.495c0,0.988,0.14,1.976,0.215,2.964c-0.144,0.987,0.53,0.673,1.023,0.643
		c34.749,0,69.498,0.001,104.248,0.002c0.523,0.047,1.178,0.326,1.136-0.637c0.058-10.739,0.114-21.479,0.173-32.22
		c0.005-0.875-0.009-1.751,0.03-2.623c0.021-0.486,0.06-1.012,0.752-1.061c0.643-0.047,0.946,0.321,0.88,0.87
		c-0.541,4.489,2.904,5.396,5.962,6.208c1.876,0.5,2.296,1.229,2.282,2.983c-0.045,6.118,0.063,12.237,0.11,18.356
		c-0.052,5.613-0.081,11.229-0.161,16.844c-0.07,4.854-2.039,6.907-6.789,6.91c-37.592,0.021-75.183,0.022-112.774,0.003
		c-5.381-0.003-6.765-1.415-6.842-6.918C225.886,496.447,225.859,488.588,225.796,480.726z M289.211,284.383
		c-4.869,0-9.739-0.001-14.607,0c-1.418,0.002-3.078,0.036-3.038,1.891c0.041,1.864,1.742,1.763,3.129,1.763
		c9.738,0.001,19.478,0.001,29.215,0.001c1.282,0,2.75,0.01,2.823-1.675c0.085-1.945-1.49-1.979-2.915-1.979
		C298.949,284.378,294.081,284.381,289.211,284.383z" fill="#0F0F0F"/>
	<path d="M271.552,409.904c8.449-5.518,11.53-8.617,13.957-14.236c-5.487,1.947-10.807,3.598-16.302,4.631
		c-2.241,0.423-3.751,0.189-4.665-2.234c-0.964-2.559-2.231-5.019-3.534-7.429c-1.173-2.175-0.964-3.106,1.77-3.51
		c16.178-2.383,30.492-8.494,41.206-21.402c1.252-1.51,1.896-1.279,3.127-0.041c15.78,15.852,31.58,31.686,47.472,47.427
		c1.736,1.721,0.914,2.531-0.272,3.834c-9.713,10.652-18.545,21.924-24.374,35.266c-0.197,0.451-0.5,0.859-0.679,1.316
		c-2.018,5.156-2.01,5.15-6.781,2.729c-1.244-0.633-2.542-1.158-3.773-1.812c-4.173-2.209-4.271-2.535-2.009-6.721
		c0.752-1.392,1.613-2.722,2.509-4.22c-2.979-1.127-6.297-0.532-8.688,0.664c-5.381,2.691-8.61-0.357-11.745-3.474
		c-1.481-1.474-4.464-2.043-4.432-4.009c0.029-1.737,2.04-3.44,3.173-5.161c3.538-5.367,7.079-10.732,10.606-16.106
		c0.433-0.657,1.278-1.395,0.426-2.162c-0.65-0.584-1.34,0.01-1.972,0.467c-6.217,4.498-12.51,8.893-18.646,13.496
		c-1.746,1.311-2.848,1.148-4-0.471C279.885,421.069,275.114,415.931,271.552,409.904z" fill="#0F0F0F"/>
	<path d="M386.092,345.79c-11.882,11.922-23.791,23.815-35.612,35.796c-1.57,1.592-2.491,1.798-4.063,0.004
		c-2.385-2.718-4.933-5.337-7.688-7.671c-2.07-1.753-1.447-2.806,0.114-4.34c5.971-5.865,12.035-11.65,17.729-17.777
		c8.457-9.104,17.479-17.603,26.759-25.833c2.918-2.588,8.772-2.819,11.058-0.898c2.591,2.18,3.055,6.134,0.689,10.27
		c-1.436,2.511-2.551,5.53-5.797,6.523c0.031-0.619,0.117-1.24,0.085-1.854c-0.201-3.797-2.897-6.403-6.399-6.22
		c-3.516,0.186-6.146,3.276-5.806,6.82c0.341,3.528,3.205,5.708,7.095,5.389C384.867,345.947,385.479,345.86,386.092,345.79z" fill="#0F0F0F"/>
	<path d="M363.221,404.023c-0.254,1.082-0.396,2.205-0.777,3.24c-2.018,5.454-3.647,5.839-7.621,1.866
		c-14.998-14.998-30-29.994-44.994-44.997c-2.897-2.898-2.771-3.61,0.913-5.547c4.502-2.365,7.851-1.94,11.306,1.509
		c12.715,12.695,25.408,25.41,38.13,38.099C361.807,399.82,363.316,401.452,363.221,404.023z" fill="#0F0F0F"/>
	<path d="M344.218,452.975c-0.005-4.739,4.571-9.066,9.506-8.984c4.89,0.081,8.647,4.009,8.606,8.992
		c-0.041,4.891-4.021,8.77-8.865,8.771C349.231,461.756,343.319,457.111,344.218,452.975z" fill="#0F0F0F"/>
	<path d="M342.651,444.28c-0.844-8.199,6.051-11.538,8.736-17.166c0.342,0.078,0.684,0.157,1.023,0.235
		c0,3.493-0.017,6.986,0.012,10.479c0.008,1.105-0.551,1.479-1.563,1.632C347.7,439.931,345.238,441.729,342.651,444.28z" fill="#0F0F0F"/>
	<path d="M375.199,449.016c2.356,0.094,3.745,1.33,3.794,3.661c0.05,2.353-1.415,3.819-3.667,3.793
		c-2.706-0.033-3.811-1.922-3.837-4.492C371.464,449.412,373.346,449.237,375.199,449.016z" fill="#0F0F0F"/>
	<path d="M369.396,440.381c1.109,0.296,1.901,0.831,1.779,2.043c-0.102,0.991-0.77,1.551-1.747,1.55
		c-0.992-0.001-1.648-0.626-1.744-1.575C367.563,441.189,368.438,440.693,369.396,440.381z" fill="#0F0F0F"/>
</g>
</svg>
