<?xml version="1.0" encoding="utf-8"?><!-- Generator: Adobe Illustrator 16.0.3, SVG Export Plug-In . SVG Version: 6.00 Build 0)  --><!DOCTYPE svg PUBLIC
    "-//W3C//DTD SVG 1.1//EN" "http://www.w3.org/Graphics/SVG/1.1/DTD/svg11.dtd">
<svg enable-background="new 679 323.469 606.153 145.03" height="145.03px" id="Capa_1"  version="1.1" viewBox="679 323.469 606.153 145.03"
	 width="606.153px" x="0px" xmlns="http://www.w3.org/2000/svg" y="0px"
	 xml:space="preserve">
<g>
	<g>
		<path d="M1221.5,457.5c0,6.051-4.95,11-11,11H690c-6.051,0-11-4.949-11-11v-123.03c0-6.051,4.949-11,11-11h520.5
			c6.05,0,11,4.949,11,11V457.5z" fill="#FFFFFF"/>
	</g>
	<path d="M1210.984,323.469c0,0,2.453,0,4.217,0.653c5.436,2.017,59.271,54.874,69.269,70.252
		c0.978,1.503,0.847,5.592,0,7.172c-5.906,11.017-65.719,65.496-69.219,66.371c-2.22,0.555-4.267,0.582-4.267,0.582V323.469z" fill="#FFFFFF"/>
</g>
</svg>
